<?xml version="1.0" encoding="utf-8"?>
<!-- Generator: Adobe Illustrator 16.0.4, SVG Export Plug-In . SVG Version: 6.00 Build 0)  -->
<!DOCTYPE svg PUBLIC "-//W3C//DTD SVG 1.1//EN" "http://www.w3.org/Graphics/SVG/1.1/DTD/svg11.dtd">
<svg version="1.1" id="Layer_1" xmlns="http://www.w3.org/2000/svg" xmlns:xlink="http://www.w3.org/1999/xlink" x="0px" y="0px"
	 width="74px" height="64px" viewBox="0 0 74 64" enable-background="new 0 0 74 64" xml:space="preserve">
<g>
	<path fill="none" d="M56.468,25.987c-7.453,0.018-13.541,6.113-13.546,13.562c-0.006,7.46,6.076,13.552,13.535,13.556
		c7.484,0.004,13.57-6.047,13.589-13.501C70.064,32.111,63.938,25.969,56.468,25.987z M56.464,50.437
		c-5.988-0.004-10.863-4.868-10.876-10.849c-0.012-6.056,4.824-10.914,10.876-10.933c6.04-0.019,10.912,4.84,10.916,10.89
		C67.384,45.568,62.506,50.438,56.464,50.437z"/>
	<g>
		<path fill="none" d="M56.468,25.987c-7.453,0.018-13.541,6.113-13.546,13.562c-0.006,7.46,6.076,13.552,13.535,13.556
			c7.484,0.004,13.57-6.047,13.589-13.501C70.064,32.111,63.938,25.969,56.468,25.987z M56.464,50.437
			c-5.988-0.004-10.863-4.868-10.876-10.849c-0.012-6.056,4.824-10.914,10.876-10.933c6.04-0.019,10.912,4.84,10.916,10.89
			C67.384,45.568,62.506,50.438,56.464,50.437z"/>
		<g>
			<path fill="#CDCDCD" d="M73.995,22.746c-0.015-3.866-2.321-6.649-6.067-7.541c-0.433-0.104-0.864-0.229-1.292-0.366
				C53.858,10.714,41.083,6.586,28.305,2.463c-2.465-0.796-4.931-1.586-7.426-2.386c-0.54-0.14-1.139,0.007-1.562,0.43
				c-0.636,0.636-0.634,1.667,0,2.3c0.227,0.227,0.505,0.369,0.796,0.434c12.074,3.895,24.078,7.769,36.083,11.642
				c-0.002,0.061-0.002,0.123-0.004,0.183c-0.332,0-0.662,0-0.991,0c-15.749,0-31.5-0.002-47.246,0.001
				c-4.587,0.001-7.875,3.096-7.895,7.61c-0.05,11.255-0.053,22.51,0.002,33.764c0.021,4.466,3.339,7.586,7.83,7.586
				c19.427,0,38.851,0,58.279,0c4.52,0,7.806-3.155,7.822-7.686C74.034,45.143,74.029,33.944,73.995,22.746z M36.875,53.367H7.641
				c-1.086,0-1.967-0.881-1.967-1.967c0-1.087,0.881-1.968,1.967-1.968h29.234c1.086,0,1.968,0.881,1.968,1.968
				C38.843,52.486,37.961,53.367,36.875,53.367z M36.875,45.621H7.641c-1.086,0-1.967-0.879-1.967-1.967
				c0-1.086,0.881-1.967,1.967-1.967h29.234c1.086,0,1.968,0.881,1.968,1.967C38.843,44.742,37.961,45.621,36.875,45.621z
				 M36.875,37.778H7.641c-1.086,0-1.967-0.882-1.967-1.969c0-1.086,0.881-1.967,1.967-1.967h29.234
				c1.086,0,1.968,0.881,1.968,1.967C38.843,36.896,37.961,37.778,36.875,37.778z M36.875,30.158H7.641
				c-1.086,0-1.967-0.881-1.967-1.968c0-1.086,0.881-1.967,1.967-1.967h29.234c1.086,0,1.968,0.881,1.968,1.967
				C38.843,29.277,37.961,30.158,36.875,30.158z M56.457,53.104c-7.459-0.004-13.541-6.096-13.535-13.556
				c0.005-7.449,6.093-13.544,13.546-13.562c7.47-0.018,13.597,6.124,13.576,13.617C70.027,47.058,63.941,53.108,56.457,53.104z"/>
			<path fill="#CDCDCD" d="M56.464,28.655c-6.052,0.019-10.888,4.877-10.876,10.933c0.013,5.98,4.888,10.846,10.876,10.849
				c6.042,0.002,10.922-4.868,10.916-10.892C67.376,33.495,62.504,28.636,56.464,28.655z"/>
		</g>
	</g>
</g>
</svg>
