<?xml version="1.0" encoding="utf-8"?>
<!-- Generator: Adobe Illustrator 16.0.4, SVG Export Plug-In . SVG Version: 6.00 Build 0)  -->
<!DOCTYPE svg PUBLIC "-//W3C//DTD SVG 1.1//EN" "http://www.w3.org/Graphics/SVG/1.1/DTD/svg11.dtd">
<svg version="1.1" id="Layer_1" xmlns="http://www.w3.org/2000/svg" xmlns:xlink="http://www.w3.org/1999/xlink" x="0px" y="0px"
	 width="64px" height="64px" viewBox="0 0 64 64" enable-background="new 0 0 64 64" xml:space="preserve">
<g>
	<path fill-rule="evenodd" clip-rule="evenodd" fill="#FFFFFF" d="M10.946,49.723c0.565,0.889,1.018,1.885,1.731,2.631
		c0.57,0.594,1.46,0.884,2.207,1.309c-1.312,0-2.626,0-3.938,0C10.946,52.35,10.946,51.036,10.946,49.723z"/>
	<path fill-rule="evenodd" clip-rule="evenodd" fill="#FFFFFF" d="M50.853,53.662c0.868-0.545,1.851-0.972,2.569-1.67
		c0.614-0.594,0.926-1.5,1.369-2.27c0,1.313,0,2.627,0,3.939C53.478,53.662,52.164,53.662,50.853,53.662z"/>
	<path fill-rule="evenodd" clip-rule="evenodd" fill="#FFFFFF" d="M29.343,26.621c2.287,0.126,5.207,0.14,8.085,0.487
		c3.259,0.393,4.579,1.683,5.101,4.924c0.713,4.415,0.716,8.87-0.079,13.282c-0.508,2.803-2.09,4.207-5.004,4.573
		c-1.664,0.21-3.35,0.339-5.025,0.342c-3.678,0.005-7.357-0.066-11.033-0.168c-0.9-0.024-1.805-0.238-2.687-0.448
		c-2.519-0.601-3.622-2.449-3.959-4.812c-0.6-4.198-0.608-8.415-0.003-12.613c0.492-3.417,2.388-5.001,6.205-5.244
		C23.531,26.779,26.129,26.74,29.343,26.621z"/>
	<path fill-rule="evenodd" clip-rule="evenodd" fill="#FFFFFF" d="M48.906,43.609c-1.456,0.01-2.62-1.115-2.648-2.561
		c-0.027-1.403,1.156-2.619,2.573-2.643c1.469-0.023,2.692,1.163,2.69,2.611C51.521,42.45,50.36,43.602,48.906,43.609z"/>
	<path fill-rule="evenodd" clip-rule="evenodd" fill="#FFFFFF" d="M48.872,31.667c1.446-0.008,2.624,1.132,2.651,2.566
		c0.026,1.433-1.209,2.665-2.659,2.654c-1.415-0.012-2.606-1.207-2.606-2.618C46.258,32.841,47.431,31.675,48.872,31.667z"/>
</g>
<g>
	<g>
		<path fill="#CDCDCD" d="M48.922,0.174c-0.545,0.059-1.068,0.307-1.459,0.69L32,16.249l-8.079-8.037
			c-0.925-0.92-2.613-0.92-3.537,0c-0.924,0.919-0.924,2.599,0,3.52l8.079,8.038H7.384C3.306,19.77,0,23.061,0,27.115v29.389
			c0,4.059,3.306,7.347,7.384,7.347h49.231c4.078,0,7.385-3.288,7.385-7.347V27.115c0-4.055-3.307-7.346-7.385-7.346H35.537
			L50.998,4.384C52.531,2.963,50.99-0.162,48.922,0.174L48.922,0.174z M25.848,24.665c18.324,0,20.92,0.053,20.92,17.145
			c0,17.093-2.775,17.145-20.92,17.145c-18.232,0-20.925-0.183-20.925-17.145C4.923,24.852,7.616,24.665,25.848,24.665
			L25.848,24.665z M55.385,31.86c2.131,0,3.846,1.707,3.846,3.829c0,2.118-1.715,3.825-3.846,3.825
			c-2.133,0-3.848-1.707-3.848-3.825C51.537,33.567,53.252,31.86,55.385,31.86L55.385,31.86z M55.385,41.657
			c2.131,0,3.846,1.707,3.846,3.828c0,2.119-1.715,3.827-3.846,3.827c-2.133,0-3.848-1.708-3.848-3.827
			C51.537,43.364,53.252,41.657,55.385,41.657L55.385,41.657z"/>
	</g>
</g>
</svg>
